<?xml version="1.0" standalone="no"?><!DOCTYPE svg PUBLIC "-//W3C//DTD SVG 1.1//EN" "http://www.w3.org/Graphics/SVG/1.1/DTD/svg11.dtd"><svg width="200" height="200" viewBox="0 0 200 200" version="1.1" xmlns="http://www.w3.org/2000/svg" xmlns:xlink="http://www.w3.org/1999/xlink"><defs><style type="text/css"><![CDATA[
@font-face { font-family: ifont; src: url("//at.alicdn.com/t/font_1442373896_4754455.eot?#iefix") format("embedded-opentype"), url("//at.alicdn.com/t/font_1442373896_4754455.woff") format("woff"), url("//at.alicdn.com/t/font_1442373896_4754455.ttf") format("truetype"), url("//at.alicdn.com/t/font_1442373896_4754455.svg#ifont") format("svg"); }

]]></style></defs><g class="transform-group"><g transform="scale(0.1953125, 0.1953125)"><path d="M643.571083 599.256296 376.099309 599.256296c-11.352559 0-20.574594 9.202593-20.574594 20.573571l0 20.575618c0 11.372002 9.222035 20.574594 20.574594 20.574594l267.471774 0c11.373025 0 20.575618-9.202593 20.575618-20.574594L664.146701 619.829867C664.146701 608.458889 654.944108 599.256296 643.571083 599.256296zM643.571083 455.232089 376.099309 455.232089c-11.352559 0-20.574594 9.202593-20.574594 20.574594l0 20.574594c0 11.372002 9.222035 20.574594 20.574594 20.574594l267.471774 0c11.373025 0 20.575618-9.202593 20.575618-20.574594l0-20.574594C664.146701 464.434681 654.944108 455.232089 643.571083 455.232089zM726.353484 125.553531 294.541805 125.553531c-56.821123 0-102.873995 46.051849-102.873995 102.872972l0 538.362414c0 56.821123 46.051849 102.873995 102.873995 102.873995l431.810656 0c56.821123 0 102.873995-46.052872 102.873995-102.873995L829.226456 228.426503C829.22748 171.60538 783.174608 125.553531 726.353484 125.553531zM767.020696 743.280504c0 34.07712-27.627221 61.72276-61.723783 61.72276L314.374502 805.003264c-34.096563 0-61.723783-27.646664-61.723783-61.72276L252.650719 249.483074c0-34.117029 27.627221-61.723783 61.723783-61.723783l390.922411 0c34.096563 0 61.723783 27.607778 61.723783 61.723783L767.020696 743.280504zM643.571083 311.207881 376.099309 311.207881c-11.352559 0-20.574594 9.202593-20.574594 20.574594L355.524714 352.358093c0 11.372002 9.222035 20.574594 20.574594 20.574594l267.471774 0c11.373025 0 20.575618-9.202593 20.575618-20.574594l0-20.574594C664.146701 320.411497 654.944108 311.207881 643.571083 311.207881z" fill="#a9b7b7"></path></g></g></svg>