<?xml version="1.0" standalone="no"?><!DOCTYPE svg PUBLIC "-//W3C//DTD SVG 1.1//EN" "http://www.w3.org/Graphics/SVG/1.1/DTD/svg11.dtd"><svg width="200" height="200" viewBox="0 0 200 200" version="1.1" xmlns="http://www.w3.org/2000/svg" xmlns:xlink="http://www.w3.org/1999/xlink"><defs><style type="text/css"><![CDATA[
@font-face { font-family: ifont; src: url("//at.alicdn.com/t/font_1442373896_4754455.eot?#iefix") format("embedded-opentype"), url("//at.alicdn.com/t/font_1442373896_4754455.woff") format("woff"), url("//at.alicdn.com/t/font_1442373896_4754455.ttf") format("truetype"), url("//at.alicdn.com/t/font_1442373896_4754455.svg#ifont") format("svg"); }

]]></style></defs><g class="transform-group"><g transform="scale(0.1953125, 0.1953125)"><path d="M895.859551 213.3092c-0.008186-47.136553-38.193881-85.306898-85.329411-85.298711l-597.200474 0.10847c-47.136553 0.008186-85.306898 38.193881-85.298711 85.329411l0.10847 597.200474c0.008186 47.136553 38.193881 85.307921 85.329411 85.298711l597.200474-0.10847c47.136553-0.008186 85.307921-38.193881 85.298711-85.329411L895.859551 213.3092zM213.453487 810.632471l-0.10847-597.200474 597.200474-0.10847 0.10847 597.200474L213.453487 810.632471zM451.792757 583.02052 359.487467 490.747977 299.171754 551.08518 451.814246 703.673437 724.828246 430.560176 664.491043 370.245486Z" fill="#2196F3"></path></g></g></svg>