<?xml version="1.0" standalone="no"?><!DOCTYPE svg PUBLIC "-//W3C//DTD SVG 1.1//EN" "http://www.w3.org/Graphics/SVG/1.1/DTD/svg11.dtd"><svg width="200" height="200" viewBox="0 0 200 200" version="1.1" xmlns="http://www.w3.org/2000/svg" xmlns:xlink="http://www.w3.org/1999/xlink"><defs><style type="text/css"><![CDATA[
@font-face { font-family: ifont; src: url("//at.alicdn.com/t/font_1442373896_4754455.eot?#iefix") format("embedded-opentype"), url("//at.alicdn.com/t/font_1442373896_4754455.woff") format("woff"), url("//at.alicdn.com/t/font_1442373896_4754455.ttf") format("truetype"), url("//at.alicdn.com/t/font_1442373896_4754455.svg#ifont") format("svg"); }

]]></style></defs><g class="transform-group"><g transform="scale(0.1953125, 0.1953125)"><path d="M121.6 390.4C57.6 390.4 0 448 0 512c0 64 57.6 121.6 121.6 121.6C192 633.6 243.2 576 243.2 512 243.2 448 192 390.4 121.6 390.4zM512 390.4C441.6 390.4 390.4 448 390.4 512c0 64 57.6 121.6 121.6 121.6S633.6 576 633.6 512C633.6 448 582.4 390.4 512 390.4zM902.4 390.4C832 390.4 780.8 448 780.8 512c0 64 57.6 121.6 121.6 121.6C966.4 633.6 1024 576 1024 512 1024 448 966.4 390.4 902.4 390.4z" fill="#a9b7b7"></path></g></g></svg>