<?xml version="1.0" encoding="utf-8"?>
<!-- Generated by IcoMoon.io -->
<!DOCTYPE svg PUBLIC "-//W3C//DTD SVG 1.1//EN" "http://www.w3.org/Graphics/SVG/1.1/DTD/svg11.dtd">
<svg version="1.1" xmlns="http://www.w3.org/2000/svg" xmlns:xlink="http://www.w3.org/1999/xlink" width="752" height="32" viewBox="0 0 752 32">
<svg id="icon-article0" width="32" height="32" viewBox="0 0 32 32" x="0" y="0">
<path fill="#a9b7b7" d="M24.619 2.020h-17.21c-2.37 0-4.289 1.89-4.289 4.232v19.496c0 2.342 1.919 4.232 4.289 4.232h17.182c2.37 0 4.288-1.89 4.288-4.232v-19.496c0.028-2.342-1.89-4.232-4.26-4.232zM26.933 25.72c0 1.241-1.044 2.285-2.314 2.285h-17.182c-1.27 0-2.313-1.016-2.313-2.285v-19.496c0-1.241 1.044-2.285 2.313-2.285h17.182c1.27 0 2.314 1.016 2.314 2.285v19.496zM9.117 7.993h7.995v1.999h-7.995v-1.999zM9.117 13.99h13.991v1.999h-13.991v-1.999zM9.117 19.986h13.991v1.999h-13.991v-1.999z"></path>
</svg>
<svg id="icon-article1" width="32" height="32" viewBox="0 0 32 32" x="48" y="0">
<path fill="#2196f3" d="M24.619 2.020h-17.21c-2.37 0-4.289 1.89-4.289 4.232v19.496c0 2.342 1.919 4.232 4.289 4.232h17.182c2.37 0 4.288-1.89 4.288-4.232v-19.496c0.028-2.342-1.89-4.232-4.26-4.232zM26.933 25.72c0 1.241-1.044 2.285-2.314 2.285h-17.182c-1.27 0-2.313-1.016-2.313-2.285v-19.496c0-1.241 1.044-2.285 2.313-2.285h17.182c1.27 0 2.314 1.016 2.314 2.285v19.496zM9.117 7.993h7.995v1.999h-7.995v-1.999zM9.117 13.99h13.991v1.999h-13.991v-1.999zM9.117 19.986h13.991v1.999h-13.991v-1.999z"></path>
</svg>
<svg id="icon-clock0" width="32" height="32" viewBox="0 0 32 32" x="96" y="0">
<path fill="#a9b7b7" d="M16 1.333q2.989 0 5.703 1.161t4.677 3.125 3.125 4.677 1.161 5.703-1.161 5.703-3.125 4.677-4.677 3.125-5.703 1.161-5.703-1.161-4.677-3.125-3.125-4.677-1.161-5.703 1.161-5.703 3.125-4.677 4.677-3.125 5.703-1.161zM16 4q-2.437 0-4.661 0.953t-3.828 2.557-2.557 3.828-0.953 4.661 0.953 4.661 2.557 3.828 3.828 2.557 4.661 0.953 4.661-0.953 3.828-2.557 2.557-3.828 0.953-4.661-0.953-4.661-2.557-3.828-3.828-2.557-4.661-0.953zM16 6.667q0.552 0 0.943 0.391t0.391 0.943v7.448l3.615 3.604q0.385 0.385 0.385 0.948t-0.385 0.948-0.948 0.385-0.948-0.385l-4-4q-0.385-0.385-0.385-0.948v-8q0-0.552 0.391-0.943t0.943-0.391z"></path>
</svg>
<svg id="icon-clock1" width="32" height="32" viewBox="0 0 32 32" x="144" y="0">
<path fill="#2196f3" d="M16 1.333q2.989 0 5.703 1.161t4.677 3.125 3.125 4.677 1.161 5.703-1.161 5.703-3.125 4.677-4.677 3.125-5.703 1.161-5.703-1.161-4.677-3.125-3.125-4.677-1.161-5.703 1.161-5.703 3.125-4.677 4.677-3.125 5.703-1.161zM16 4q-2.437 0-4.661 0.953t-3.828 2.557-2.557 3.828-0.953 4.661 0.953 4.661 2.557 3.828 3.828 2.557 4.661 0.953 4.661-0.953 3.828-2.557 2.557-3.828 0.953-4.661-0.953-4.661-2.557-3.828-3.828-2.557-4.661-0.953zM16 6.667q0.552 0 0.943 0.391t0.391 0.943v7.448l3.615 3.604q0.385 0.385 0.385 0.948t-0.385 0.948-0.948 0.385-0.948-0.385l-4-4q-0.385-0.385-0.385-0.948v-8q0-0.552 0.391-0.943t0.943-0.391z"></path>
</svg>
<svg id="icon-done0" width="32" height="32" viewBox="0 0 32 32" x="192" y="0">
<path fill="#a9b7b7" d="M27.996 6.666c-0-1.473-1.194-2.666-2.667-2.666l-18.663 0.003c-1.473 0-2.666 1.194-2.666 2.667l0.003 18.663c0 1.473 1.194 2.666 2.667 2.666l18.663-0.003c1.473-0 2.666-1.194 2.666-2.667l-0.003-18.663zM6.67 25.332l-0.003-18.663 18.663-0.003 0.003 18.663-18.663 0.003zM14.119 18.219l-2.885-2.884-1.885 1.886 4.77 4.768 8.532-8.535-1.886-1.885z"></path>
</svg>
<svg id="icon-done1" width="32" height="32" viewBox="0 0 32 32" x="240" y="0">
<path fill="#2196f3" d="M27.996 6.666c-0-1.473-1.194-2.666-2.667-2.666l-18.663 0.003c-1.473 0-2.666 1.194-2.666 2.667l0.003 18.663c0 1.473 1.194 2.666 2.667 2.666l18.663-0.003c1.473-0 2.666-1.194 2.666-2.667l-0.003-18.663zM6.67 25.332l-0.003-18.663 18.663-0.003 0.003 18.663-18.663 0.003zM14.119 18.219l-2.885-2.884-1.885 1.886 4.77 4.768 8.532-8.535-1.886-1.885z"></path>
</svg>
<svg id="icon-edit" width="28" height="28" viewBox="0 0 32 32" x="288" y="0">
<path fill="#fff" d="M26.6 12l5-5-6.8-7-4.8 5zM18.8 6l-18.4 19v7h6.8l18.4-18.8z"></path>
</svg>
<svg id="icon-more0" width="32" height="32" viewBox="0 0 32 32" x="336" y="0">
<path fill="#a9b7b7" d="M3.8 12.2c-2 0-3.8 1.8-3.8 3.8s1.8 3.8 3.8 3.8c2.2 0 3.8-1.8 3.8-3.8s-1.6-3.8-3.8-3.8zM16 12.2c-2.2 0-3.8 1.8-3.8 3.8s1.8 3.8 3.8 3.8 3.8-1.8 3.8-3.8c0-2-1.6-3.8-3.8-3.8zM28.2 12.2c-2.2 0-3.8 1.8-3.8 3.8s1.8 3.8 3.8 3.8c2 0 3.8-1.8 3.8-3.8s-1.8-3.8-3.8-3.8z"></path>
</svg>
<svg id="icon-more1" width="32" height="32" viewBox="0 0 32 32" x="384" y="0">
<path fill="#2196f3" d="M3.8 12.2c-2 0-3.8 1.8-3.8 3.8s1.8 3.8 3.8 3.8c2.2 0 3.8-1.8 3.8-3.8s-1.6-3.8-3.8-3.8zM16 12.2c-2.2 0-3.8 1.8-3.8 3.8s1.8 3.8 3.8 3.8 3.8-1.8 3.8-3.8c0-2-1.6-3.8-3.8-3.8zM28.2 12.2c-2.2 0-3.8 1.8-3.8 3.8s1.8 3.8 3.8 3.8c2 0 3.8-1.8 3.8-3.8s-1.8-3.8-3.8-3.8z"></path>
</svg>
<svg id="icon-search" width="24" height="24" viewBox="0 0 32 32" x="432" y="0">
<path fill="#fff" d="M13.46 24.45c-6.29 0-11.389-5.010-11.389-11.2s5.099-11.21 11.389-11.21c6.29 0 11.39 5.020 11.39 11.21s-5.1 11.2-11.39 11.2v0zM31.688 30.25l-8.259-8.13c2.162-2.35 3.491-5.45 3.491-8.87 0-7.32-6.026-13.25-13.46-13.25s-13.46 5.93-13.46 13.25c0 7.31 6.026 13.24 13.46 13.24 3.212 0 6.158-1.11 8.472-2.96l8.292 8.16c0.405 0.4 1.060 0.4 1.464 0 0.405-0.39 0.405-1.040 0-1.44v0z"></path>
</svg>
</svg>
